<svg xmlns="http://www.w3.org/2000/svg" width="82" height="19" viewBox="0 0 82 19" fill="none"><path d="M47.5375 10.3623V14.6714H44.6855V14.4464C44.6855 10.0845 44.6855 5.72322 44.6855 1.36141C44.6855 0.484071 45.1849 0.00229898 46.0927 0.00182008C47.8133 0.00182008 49.5339 -0.00153221 51.255 0.000862282C53.8894 0.00517237 55.925 1.59942 56.4745 4.08443C56.9684 6.31705 55.9116 8.64306 53.9286 9.69137C53.006 10.1789 52.0073 10.3575 50.9688 10.3637C49.9349 10.37 48.9009 10.3628 47.8664 10.3618C47.7696 10.3618 47.6722 10.3618 47.538 10.3618L47.5375 10.3623ZM47.5574 7.81744C47.6339 7.8251 47.698 7.83707 47.7616 7.83707C48.8458 7.83803 49.9299 7.84043 51.0145 7.83516C51.2118 7.8342 51.413 7.81696 51.6058 7.77865C52.8827 7.52579 53.6509 6.70496 53.7522 5.39805C53.8566 4.0533 52.9697 2.72484 51.3276 2.63815C50.0899 2.57302 48.8458 2.62331 47.6041 2.62331C47.5902 2.62331 47.5763 2.63672 47.5569 2.64678V7.81792L47.5574 7.81744Z" fill="#DF2364"/><path d="M66.2895 5.76021C66.3248 5.24731 66.3546 4.81199 66.3849 4.36422H68.8956V14.6739H66.4292C66.3849 14.2027 66.3412 13.731 66.297 13.2574C66.2667 13.2631 66.2453 13.2607 66.2404 13.2684C65.3674 14.5691 64.0447 14.9891 62.5318 14.9905C61.5853 14.9914 60.68 14.7774 59.8483 14.3248C58.6866 13.6932 57.9423 12.7378 57.588 11.5099C57.1364 9.94386 57.1488 8.38505 57.8583 6.88658C58.5713 5.38044 59.8463 4.54333 61.4998 4.2172C62.2665 4.06587 63.0451 4.03091 63.8157 4.18942C64.8188 4.39583 65.666 4.85461 66.2905 5.75973L66.2895 5.76021ZM66.2349 10.0071C66.2751 8.14416 65.4101 6.5274 63.3899 6.37847C62.0941 6.28317 60.765 6.82863 60.2 8.14752C59.9491 8.73273 59.8905 9.34476 59.9665 9.97691C60.2741 12.5314 62.9993 13.1798 64.6653 12.2972C65.7837 11.7048 66.2011 10.7067 66.2349 10.0071Z" fill="#DF2364"/><path d="M19.4495 5.76493C19.4748 5.32051 19.4977 4.94889 19.5156 4.57678C19.5215 4.45467 19.5359 4.35601 19.7024 4.35649C20.4631 4.35936 21.2238 4.35793 22.0098 4.35793V14.6772C21.9189 14.6772 21.8314 14.6772 21.744 14.6772C21.0901 14.6772 20.4367 14.6729 19.7829 14.6806C19.6244 14.6825 19.5667 14.6356 19.5573 14.4804C19.5325 14.0714 19.4892 13.6634 19.4485 13.195C19.293 13.3938 19.1856 13.5509 19.0575 13.6902C18.3594 14.4512 17.4491 14.8377 16.4306 14.9459C15.0875 15.0886 13.8086 14.8515 12.6654 14.116C11.5862 13.422 10.9487 12.4302 10.6625 11.2272C10.3396 9.87148 10.345 8.51907 10.8717 7.20689C11.5469 5.52452 12.8666 4.57583 14.6717 4.22432C15.4642 4.06963 16.2666 4.04233 17.0586 4.22288C17.9783 4.43264 18.7683 4.85311 19.3183 5.62461C19.3402 5.65526 19.3705 5.68065 19.45 5.76493H19.4495ZM13.0663 9.59372C13.0837 9.75176 13.0951 9.98307 13.1374 10.2091C13.6183 12.7956 16.6159 13.1893 18.1229 12.129C19.4569 11.1904 19.7819 9.24461 18.9601 7.81366C18.0935 6.30465 16.1513 6.03503 14.781 6.6734C13.5562 7.24425 13.0917 8.2643 13.0668 9.59372H13.0663Z" fill="#DF2364"/><path d="M2.85346 2.66267V6.6926C2.95184 6.69739 3.04724 6.70553 3.14214 6.70553C4.92139 6.70649 6.70065 6.71032 8.4799 6.70074C8.71889 6.69931 8.79789 6.76252 8.78497 6.99431C8.7656 7.33624 8.78746 7.68009 8.77653 8.02298C8.75317 8.75091 8.24737 9.22501 7.49264 9.22645C6.0443 9.2298 4.59595 9.23411 3.1481 9.22214C2.89023 9.21975 2.83707 9.29158 2.83856 9.53151C2.85048 11.1588 2.84055 12.7861 2.848 14.4134C2.84899 14.6232 2.78689 14.6854 2.56678 14.6816C1.80559 14.6686 1.0439 14.6768 0.282713 14.6768C0.201725 14.6768 0.12024 14.6768 0.000496859 14.6768C0.000496859 14.5695 0.000496859 14.4857 0.000496859 14.4019C0 10.0545 0 5.70703 0 1.36007C0 0.531097 0.511268 0.0325635 1.37183 0.0320847C4.43397 0.0301691 7.49612 0.0320846 10.5583 0.0325635C10.9016 0.0325635 10.9016 0.0349581 10.9016 0.375934C10.9016 0.69488 10.9016 1.0143 10.9011 1.33325C10.8996 2.16127 10.3868 2.66171 9.53275 2.66219C7.42258 2.66363 5.31193 2.66219 3.20176 2.66219C3.09494 2.66219 2.98861 2.66219 2.85396 2.66219L2.85346 2.66267Z" fill="#DF2364"/><path d="M32.7374 5.41463C32.2544 5.96632 31.7869 6.50077 31.3318 7.02038C30.9725 6.81732 30.6446 6.57979 30.2774 6.43468C29.3612 6.07216 28.4077 6.04199 27.4612 6.31017C26.7815 6.50269 26.4918 7.03666 26.7681 7.57159C26.8665 7.76171 27.0717 7.93124 27.2699 8.03612C27.8453 8.33974 28.4977 8.31915 29.1292 8.37805C29.8958 8.44989 30.6471 8.57679 31.3715 8.84929C33.7544 9.74531 33.7584 12.7901 32.0736 14.0463C31.4008 14.5477 30.6416 14.8422 29.8099 14.9442C28.5016 15.1047 27.2019 15.0692 25.9448 14.6277C25.0907 14.3279 24.3707 13.8322 23.7402 13.1929C24.1641 12.5981 24.5789 12.0167 25.0018 11.4238C25.199 11.5728 25.3635 11.7184 25.5478 11.8333C26.5773 12.475 27.6957 12.851 28.9334 12.828C29.4412 12.8184 29.9112 12.668 30.2948 12.3299C30.9144 11.784 30.7499 10.943 29.9495 10.7108C29.4805 10.5748 28.9816 10.5202 28.4912 10.4723C27.5735 10.3832 26.6747 10.2376 25.838 9.84156C24.7424 9.32244 24.1064 8.50113 24.0985 7.30005C24.0905 6.10712 24.6987 5.25899 25.7649 4.69772C26.5336 4.29353 27.3673 4.10867 28.2358 4.07324C29.1823 4.03492 30.1204 4.08856 31.0217 4.40846C31.6552 4.63307 32.2261 4.95632 32.7369 5.41367L32.7374 5.41463Z" fill="#DF2364"/><path d="M41.3576 12.2492C41.5842 12.9168 41.8112 13.5719 42.0219 14.2323C42.0378 14.2826 41.9558 14.4057 41.8932 14.4291C41.0794 14.7299 40.2352 14.8395 39.3652 14.7888C38.6125 14.7452 37.9183 14.5527 37.3251 14.0858C36.6275 13.5374 36.2797 12.8037 36.1545 11.9666C36.0993 11.5979 36.0879 11.221 36.0854 10.8474C36.0775 9.53957 36.0824 8.23218 36.0824 6.92431C36.0824 6.66986 35.9543 6.54263 35.6979 6.54263C35.1692 6.54263 34.6401 6.54263 34.091 6.54263C34.0816 6.46936 34.0667 6.4095 34.0667 6.34963C34.0657 5.76777 34.0761 5.18543 34.0627 4.60357C34.0577 4.40052 34.1397 4.36364 34.3241 4.367C34.8284 4.37609 35.3337 4.35981 35.838 4.37514C36.0432 4.38136 36.0879 4.31144 36.0859 4.12994C36.0775 3.41255 36.0904 2.69468 36.078 1.97729C36.074 1.76083 36.1505 1.69043 36.3706 1.67176C37.1268 1.6071 37.8816 1.52282 38.6756 1.44141V4.37035C38.8003 4.37035 38.8867 4.37035 38.9737 4.37035C39.7845 4.37035 40.5954 4.37562 41.4058 4.36652C41.5911 4.3646 41.6537 4.41728 41.6458 4.59639C41.6324 4.89905 41.6453 5.20219 41.6403 5.50534C41.6309 6.08576 41.1733 6.53114 40.5691 6.53928C40.0151 6.54694 39.4606 6.54694 38.9061 6.53928C38.7262 6.53688 38.6602 6.58765 38.6611 6.76915C38.6676 8.21255 38.6562 9.65595 38.6676 11.0989C38.6761 12.1539 39.4149 12.6922 40.5413 12.4747C40.8066 12.4235 41.064 12.3315 41.3576 12.2492Z" fill="#DF2364"/><path d="M81.4817 4.36186C81.197 5.00167 80.9212 5.62184 80.645 6.24201C79.1693 9.55599 77.6936 12.87 76.218 16.1839C75.8304 17.0546 75.4399 17.9243 75.0583 18.7973C74.9957 18.9405 74.9226 19.0013 74.7502 18.9994C73.8738 18.9893 72.9973 18.9946 72.0781 18.9946C72.1586 18.8054 72.2257 18.6397 72.2987 18.4764C73.7615 15.217 75.2302 11.9601 76.685 8.69732C77.2817 7.3588 77.8541 6.00975 78.423 4.65973C78.5204 4.42843 78.6327 4.33696 78.9035 4.34414C79.689 4.36521 80.475 4.35132 81.2611 4.3518C81.3247 4.3518 81.3883 4.35755 81.4817 4.36186Z" fill="#DF2364"/><path d="M73.2091 12.452C72.0673 9.75386 70.93 7.06629 69.7812 4.35189C70.7894 4.35189 71.7563 4.3495 72.7237 4.35764C72.7798 4.35764 72.8658 4.43187 72.8866 4.48933C73.4401 6.01415 73.9882 7.54087 74.5322 9.06904C74.5536 9.12938 74.5546 9.21127 74.5307 9.27017C74.1124 10.3094 73.6886 11.3467 73.2647 12.384C73.2563 12.4046 73.2349 12.4208 73.2086 12.452H73.2091Z" fill="#DF2364"/></svg>