<svg xmlns="http://www.w3.org/2000/svg" width="80" height="24" viewBox="0 0 80 24" fill="none"><rect width="36" height="24" rx="4" fill="white"/><path d="M20.5861 7.07071H15.2857V16.9275H20.5861V7.07071Z" fill="#FF5F00"/><path d="M15.6223 11.9991C15.6214 11.0498 15.8293 10.1128 16.2301 9.25894C16.631 8.40508 17.2143 7.65679 17.9359 7.07071C17.0423 6.34383 15.9691 5.8918 14.8389 5.76627C13.7088 5.64075 12.5673 5.84679 11.5449 6.36086C10.5226 6.87494 9.66063 7.6763 9.0576 8.67334C8.45456 9.67039 8.13477 10.8229 8.13477 11.9991C8.13477 13.1754 8.45456 14.3279 9.0576 15.3249C9.66063 16.3219 10.5226 17.1233 11.5449 17.6374C12.5673 18.1514 13.7088 18.3575 14.8389 18.232C15.9691 18.1064 17.0423 17.6544 17.9359 16.9275C17.2143 16.3414 16.631 15.5931 16.2301 14.7393C15.8293 13.8854 15.6214 12.9484 15.6223 11.9991Z" fill="#EB001B"/><path d="M27.7368 11.9991C27.7368 13.1753 27.4171 14.3278 26.8141 15.3249C26.2111 16.3219 25.3491 17.1233 24.3268 17.6374C23.3045 18.1514 22.163 18.3575 21.0329 18.232C19.9028 18.1064 18.8295 17.6544 17.9359 16.9275C18.6569 16.3409 19.2398 15.5924 19.6406 14.7387C20.0414 13.885 20.2496 12.9482 20.2496 11.9991C20.2496 11.05 20.0414 10.1132 19.6406 9.25952C19.2398 8.40579 18.6569 7.65738 17.9359 7.07071C18.8295 6.34383 19.9028 5.89179 21.0329 5.76627C22.163 5.64075 23.3045 5.8468 24.3268 6.36088C25.3491 6.87496 26.2111 7.67632 26.8141 8.67336C27.4171 9.67041 27.7368 10.8229 27.7368 11.9991Z" fill="#F79E1B"/><path d="M27.1589 15.8835V15.6817H27.2375V15.6406H27.0372V15.6817H27.1159V15.8835H27.1589ZM27.5477 15.8835V15.6402H27.4863L27.4157 15.8076L27.345 15.6402H27.2836V15.8835H27.327V15.7L27.3932 15.8582H27.4381L27.5043 15.6996V15.8835H27.5477Z" fill="#F79E1B"/><rect x="42" width="37.2" height="24" rx="4" fill="white"/><path d="M60.3729 8.09L58.6378 16.2126H56.5397L58.275 8.09H60.3729ZM69.2006 13.3348L70.3052 10.2845L70.9408 13.3348H69.2006ZM71.5415 16.2126H73.4823L71.7888 8.09H69.9974C69.5949 8.09 69.2552 8.32446 69.104 8.68593L65.9562 16.2126H68.1596L68.597 14.9997H71.2889L71.5415 16.2126ZM66.0656 13.5605C66.0746 11.4167 63.1051 11.2987 63.1257 10.341C63.1318 10.0493 63.4093 9.73972 64.0154 9.66028C64.3166 9.62095 65.1445 9.59087 66.0846 10.0241L66.4527 8.30158C65.9477 8.11802 65.298 7.94141 64.4899 7.94141C62.4161 7.94141 60.9564 9.04559 60.9441 10.6267C60.931 11.7959 61.9861 12.4484 62.7812 12.8371C63.5985 13.2353 63.8732 13.4903 63.8696 13.8464C63.8642 14.3917 63.2176 14.6318 62.6143 14.6413C61.5592 14.658 60.9469 14.3562 60.4589 14.1284L60.0787 15.9082C60.5688 16.1337 61.4737 16.3296 62.4125 16.3396C64.6164 16.3396 66.0584 15.2491 66.0656 13.5605ZM57.3747 8.09L53.9753 16.2126H51.7571L50.0843 9.73021C49.9827 9.33095 49.8943 9.18493 49.5855 9.01654C49.0816 8.74274 48.2485 8.4854 47.5156 8.32601L47.5657 8.09H51.1358C51.5907 8.09 52.0002 8.39336 52.1034 8.91807L52.987 13.6186L55.1703 8.09H57.3747Z" fill="#1434CB"/></svg>