<svg xmlns="http://www.w3.org/2000/svg" width="70" height="24" viewBox="0 0 70 24" fill="none"><path fill-rule="evenodd" clip-rule="evenodd" d="M5.78432 18.7865L6.68442 16.908H10.5434L8.19741 5.77022L3.95933 18.7957H0.910645L6.59657 0.592514H9.60594L13.9922 18.8125L5.78432 18.7865Z" fill="#ED1C24"/><path fill-rule="evenodd" clip-rule="evenodd" d="M14.9943 18.7932L15.974 16.9087H20.7838V13.8269H16.3753C16.3753 13.8269 14.9707 13.9382 14.9707 12.4086V8.58657C14.9707 8.58657 15.0176 6.85632 16.5618 6.88591H23.6608L22.6905 8.81406H17.7763V12.0146H22.1427C22.1427 12.0146 23.5512 11.991 23.5747 13.3213V17.5749C23.5747 17.5749 23.4659 18.8387 22.2185 18.8121L14.9943 18.7932Z" fill="#ED1C24"/><path fill-rule="evenodd" clip-rule="evenodd" d="M27.3469 18.793H24.6211V6.89433H27.3469V18.793Z" fill="#ED1C24"/><path fill-rule="evenodd" clip-rule="evenodd" d="M26.0391 5.36328C26.7661 5.36328 27.3555 4.77391 27.3555 4.04686C27.3555 3.31986 26.7661 2.73049 26.0391 2.73049C25.312 2.73049 24.7227 3.31986 24.7227 4.04686C24.7227 4.77391 25.312 5.36328 26.0391 5.36328Z" fill="#ED1C24"/><path fill-rule="evenodd" clip-rule="evenodd" d="M29.3667 8.81891L30.3451 6.90629H35.6191C35.6191 6.90629 36.9827 6.89083 36.9754 8.28991V17.2088C36.9754 17.2088 36.9744 18.7705 35.6274 18.7492H29.8775C29.8775 18.7492 28.3958 18.8272 28.3887 17.4093V12.6662C28.3887 12.6662 28.4034 11.341 29.8091 11.3225H34.2418V8.82863L29.3667 8.81891ZM31.1792 13.2339H34.2093V16.8998H31.1792V13.2339Z" fill="#ED1C24"/><path fill-rule="evenodd" clip-rule="evenodd" d="M51.6749 8.81891L52.6532 6.90629H57.9272C57.9272 6.90629 59.2908 6.89083 59.2836 8.28991V17.2088C59.2836 17.2088 59.2825 18.7705 57.9355 18.7492H52.1856C52.1856 18.7492 50.7039 18.8272 50.6968 17.4093V12.6662C50.6968 12.6662 50.7115 11.341 52.1172 11.3225H56.5499V8.82863L51.6749 8.81891ZM53.4873 13.2339H56.5173V16.8998H53.4873V13.2339Z" fill="#ED1C24"/><path fill-rule="evenodd" clip-rule="evenodd" d="M39.7022 0.656536V18.7148H42.4087V13.1518H48.1554C48.1554 13.1518 49.6123 13.1388 49.6272 11.9006V2.14158C49.6272 2.14158 49.6329 0.58554 48.0639 0.577435H39.7007L39.7022 0.656536ZM46.8873 11.3238H42.5584V2.39979H46.8873V11.3238Z" fill="#ED1C24"/><path fill-rule="evenodd" clip-rule="evenodd" d="M60.3024 6.8763H63.1267V16.9189H67.1392V6.87328H69.9998V21.5338C69.9998 21.5338 70.014 22.9088 68.611 23.0234H61.7374L62.7874 21.0911H67.3846V18.8587H61.7726C61.7726 18.8587 60.2807 18.8849 60.296 17.427L60.3024 6.8763Z" fill="#ED1C24"/></svg>