<svg xmlns="http://www.w3.org/2000/svg" width="52" height="24" viewBox="0 0 52 24" fill="none"><path fill-rule="evenodd" clip-rule="evenodd" d="M30.3801 0.554785V0.116884H25.4738V6.96046H26.0161V3.86409H29.9589V3.40465H26.0273V0.566309L30.3801 0.554785ZM32.2208 0.131915H31.7204V6.96296H32.2116L32.2208 0.131915ZM34.5179 0.562801V3.66067H37.0004C37.0004 3.66067 38.5102 3.63813 38.8406 2.5574C39.1709 1.47668 38.3356 0.932061 38.3356 0.932061C38.3356 0.932061 37.8398 0.580838 37.1332 0.567311L34.5179 0.562801ZM33.9992 0.131915V6.96497H34.5108V4.11661H36.8074L39.0305 6.95595H39.6754L37.4477 4.13916C37.4477 4.13916 37.366 4.03444 37.488 3.99837C37.488 3.99837 38.8615 3.83403 39.2695 2.89309C39.6779 1.95216 39.1959 1.15051 39.1959 1.15051C39.1959 1.15051 38.6496 0.187029 37.2317 0.119389L33.9992 0.131915ZM46.1772 0.122897V0.575327H48.6551V6.95946H49.1279V0.570818H51.566V0.123899L46.1772 0.122897ZM44.9876 1.21614L45.2995 0.833358C45.2995 0.833358 44.143 -0.267406 42.3396 0.0612699C40.5362 0.389946 40.6511 1.9256 40.6511 1.9256C40.6511 1.9256 40.6327 2.9928 41.8352 3.41617C43.0376 3.83954 43.6937 3.81248 44.2625 4.12312C44.8313 4.43376 45.1024 4.78498 44.9738 5.5235C44.8451 6.26202 43.9827 6.50051 43.9827 6.50051C43.9827 6.50051 43.0744 6.75253 42.0828 6.45091C42.0828 6.45091 41.2454 6.11522 40.7451 5.63573L40.4009 5.94637C40.4009 5.94637 41.273 6.8357 42.5209 7.02058C43.7693 7.20496 44.5627 6.75504 44.5627 6.75504C44.5627 6.75504 45.5033 6.26854 45.5124 5.25996C45.5216 4.25139 44.8426 3.89566 44.8426 3.89566C44.8426 3.89566 44.2416 3.5264 43.5441 3.36857C42.8467 3.21075 41.5344 2.93618 41.3093 2.39156C41.0846 1.84694 41.2266 1.3379 41.3782 1.13097C41.3782 1.13097 41.8326 0.378923 43.0621 0.446562C44.2921 0.514201 44.9876 1.21614 44.9876 1.21614ZM26.64 15.4725H25.4146V8.61235H26.6354L26.64 15.4725ZM29.3569 9.69408V12.0179H31.266C31.266 12.0179 32.5644 12.0314 32.592 10.8289C32.6195 9.62644 31.1603 9.7031 31.1603 9.7031L29.3569 9.69408ZM29.3385 15.4835H28.1177V8.61185H31.532C31.532 8.61185 33.2986 8.74713 33.6795 9.95361C34.0604 11.1606 33.5646 11.8946 33.5646 11.8946C33.5646 11.8946 33.1424 12.6151 32.3254 12.8175C32.3254 12.8175 32.1753 12.8285 32.1866 12.9122C32.1978 12.9954 32.2785 13.052 32.2933 13.0866L33.9889 15.4459H32.6308L30.9009 13.075H29.3569L29.3385 15.4835ZM37.9746 12.7649H36.9259C36.9259 12.7649 36.7374 12.7784 36.8283 12.587C36.9187 12.3956 37.9858 9.95512 37.9858 9.95512L39.1398 12.6031C39.1398 12.6031 39.2429 12.7854 39.0249 12.7844C39.2429 12.7854 37.9746 12.7649 37.9746 12.7649ZM35.5953 15.4489H34.3744L37.44 8.59081H38.5735L41.6437 15.469H40.4025L39.6499 13.8095H36.3116L35.5953 15.4489ZM46.1844 12.3044L45.4251 13.1196L46.6174 14.1563C46.2574 14.3812 45.8346 14.511 45.3828 14.511C44.0659 14.511 42.9988 13.4112 42.9988 12.0539C42.9988 10.6966 44.0659 9.59688 45.3828 9.59688C46.6996 9.59688 47.7667 10.6966 47.7667 12.0539C47.7667 12.5269 47.637 12.9683 47.4123 13.3431L46.1844 12.3044ZM45.3822 8.44651C47.4047 8.44651 49.0442 10.0553 49.0442 12.0399C49.0442 12.824 48.7884 13.549 48.3539 14.1397L49.1417 14.8061L48.3432 15.6573L47.5303 14.9504C46.9268 15.3798 46.1849 15.6333 45.3822 15.6333C43.3598 15.6333 41.7203 14.0245 41.7203 12.0399C41.7203 10.0553 43.3598 8.44651 45.3822 8.44651ZM50.2063 8.63691H51.4409V15.4499H50.2063V8.63691ZM26.782 18.4265V19.8765H28.4205C28.4205 19.8765 29.3564 19.89 29.3426 19.138C29.3288 18.386 28.4705 18.4356 28.4705 18.4356L26.782 18.4265ZM26.7912 21.1506V22.6683H28.8514C28.8514 22.6683 29.6913 22.6367 29.7143 21.9297C29.7373 21.2228 28.9249 21.1506 28.8284 21.1506H26.7912ZM25.3002 17.1384V23.9785H29.0357C29.0357 23.9785 30.8024 23.9108 31.1603 22.6592C31.5182 21.4072 30.6461 20.7949 30.6461 20.7949C30.6461 20.7949 30.3086 20.5269 30.0334 20.4617C30.0334 20.4617 29.9655 20.4482 29.9726 20.3941C29.9793 20.34 29.9992 20.3229 30.0324 20.3064C30.0324 20.3064 30.8412 19.9767 30.8366 18.8825C30.832 17.7882 29.8823 17.4009 29.8823 17.4009C29.8823 17.4009 29.3865 17.1264 28.5884 17.1354L25.3002 17.1384ZM34.7048 18.897L33.7827 21.1081H35.6136L34.7048 18.897ZM32.5613 23.9945H31.0285L34.0318 17.0713H35.4084L38.4326 23.9945H36.8539L36.1998 22.4273H33.2379L32.5613 23.9945ZM40.1262 23.983H38.6348V17.1384H40.0389L43.3179 21.333V17.1364H44.8369V23.9875H43.5339L40.1564 19.607L40.1262 23.983ZM47.1678 23.9845H45.6442V17.1379H47.1652V20.0985L50.0174 17.1219H51.8667L49.0309 20.0038L52 24H50.144L47.9755 21.0214L47.1724 21.8681L47.1678 23.9845ZM0.00561649 0.244146H14.1413C14.1413 0.244146 17.0159 0.201057 19.0864 2.80541C21.1568 5.40977 20.2648 8.34931 20.2648 8.34931C20.2648 8.34931 19.9344 9.46761 19.6261 9.88948L16.5258 7.97104C16.5258 7.97104 17.1645 6.49049 16.3935 5.36668C16.3935 5.36668 15.7108 3.95077 13.8273 3.84806H7.89678L7.64915 4.39368L18.9214 11.4131C18.9214 11.4131 21.4325 13.0339 22.2142 15.7686C22.9959 18.5027 21.84 20.2753 21.84 20.2753C21.84 20.2753 20.3644 23.7876 16.0688 23.982H0.0439107V10.7107H7.76403L13.4357 14.293H3.78858V20.356H16.008C16.008 20.356 18.2383 20.2723 18.778 17.9701C18.778 17.9701 19.0532 15.7976 17.3795 14.8362L0 3.91019L0.00561649 0.244146Z" fill="#3DAB9C"/></svg>