<svg xmlns="http://www.w3.org/2000/svg" width="24" height="24" viewBox="0 0 24 24" fill="none"><g clip-path="url(#clip0_7716_6874)"><path d="M11.9331 19.7453C13.0763 19.7528 14.1598 19.5139 15.1386 19.0809L18.232 22.2237C16.3864 23.3435 14.2196 23.9854 11.9032 23.9705C5.2756 23.9183 -0.051922 18.5136 0.000381852 11.8921C0.0526857 5.27068 5.4624 -0.0518735 12.09 0.000381496C18.7177 0.0526365 24.0452 5.4573 23.9929 12.0788C23.978 14.3033 23.3503 16.3786 22.2818 18.1553L19.166 14.9901C19.5471 14.0868 19.7638 13.0865 19.7712 12.0414C19.8011 7.75652 16.3491 4.25544 12.0602 4.21811C7.77124 4.18079 4.26688 7.62962 4.22952 11.922C4.19964 16.2069 7.64422 19.708 11.9406 19.7453M9.68407 11.9817C9.68407 13.2582 10.7152 14.2884 11.9929 14.2884C13.2706 14.2884 14.3018 13.2582 14.3018 11.9817C14.3018 10.7052 13.2706 9.67503 11.9929 9.67503C10.7152 9.67503 9.68407 10.7052 9.68407 11.9817ZM23.4101 20.5515L17.1859 14.3332C16.3939 13.5419 15.1162 13.5419 14.3242 14.3332C13.5321 15.1245 13.5321 16.401 14.3242 17.1923L20.5483 23.4106C21.3404 24.2019 22.6181 24.2019 23.4101 23.4106C24.2021 22.6194 24.2021 21.3428 23.4101 20.5515Z" fill="#FFCA05"/></g><defs><clipPath id="clip0_7716_6874"><rect width="24" height="24" fill="white"/></clipPath></defs></svg>